<svg fill="#fff" version="1.0" xmlns="http://www.w3.org/2000/svg" width="770.667" height="736" viewBox="0 0 578 552">
  <path d="M143 127.5c-33.7 33.7-50.9 51.6-50 51.9.8.3 36.4 10 79 21.6 42.6 11.6 78.3 21.4 79.3 21.8 1.5.6-15 17.5-91.3 93.2l-93.1 92.4 54.8 54.8 54.8 54.8 92.7-92.7c51-51 92.9-92.5 93.1-92.3.2.3 9.9 36 21.7 79.5 11.7 43.4 21.6 79.8 21.9 80.7.5 1.4 12.5-10.2 52.8-50.5l52.1-52.2-7.5-34c-4.1-18.7-16.9-76.9-28.4-129.4s-21-95.5-21.1-95.6c-.2-.2-10.2-2.4-22.3-5-12.1-2.6-69.9-15-128.4-27.6C244.6 86.3 196.3 76 195.6 76c-.6 0-24.3 23.2-52.6 51.5z"/>
</svg>