<svg width="34" height="33" viewBox="0 0 34 33" fill="none" xmlns="http://www.w3.org/2000/svg">
<path d="M33.9795 16.5C33.9795 7.39227 26.5985 0 17.4795 0C8.36048 0 0.979492 7.39227 0.979492 16.5C0.979492 24.7387 7.01745 31.5667 14.9063 32.7969V21.2739H10.7079V16.5H14.895V12.8659C14.895 8.73529 17.3553 6.44425 21.1248 6.44425C22.9306 6.44425 24.8153 6.77155 24.8153 6.77155V10.8345H22.7387C20.6847 10.8345 20.0527 12.1098 20.0527 13.4077V16.5H24.6348L23.9012 21.2739H20.0527V32.8081C27.9528 31.5667 33.9795 24.7387 33.9795 16.5Z" fill="black"/>
<path d="M23.9012 21.2739L24.6348 16.5H20.0527V13.4076C20.0527 12.0985 20.696 10.8344 22.7387 10.8344H24.8153V6.77151C24.8153 6.77151 22.9306 6.44421 21.1248 6.44421C17.3553 6.44421 14.895 8.72397 14.895 12.8659V16.5H10.7079V21.2739H14.895V32.8081C15.7302 32.9435 16.5992 33.0112 17.4682 33.0112C18.3372 33.0112 19.2062 32.9435 20.0414 32.8081V21.2739H23.9012Z" fill="white"/>
</svg>
