<svg viewBox="0 0 34 34" fill="none" xmlns="http://www.w3.org/2000/svg" >
  <path d="M17 34c9.389 0 17-7.611 17-17S26.389 0 17 0 0 7.611 0 17s7.611 17 17 17Z" fill="#000"/>
  <path d="M22.28 10.57c-.652 0-1.164.523-1.164 1.174a1.169 1.169 0 1 0 2.337 0c0-.651-.523-1.174-1.174-1.174ZM17.081 12.07a4.908 4.908 0 0 0 0 9.814 4.908 4.908 0 0 0 0-9.814Zm0 8.058a3.141 3.141 0 0 1-3.14-3.14 3.141 3.141 0 0 1 3.14-3.14 3.141 3.141 0 0 1 3.14 3.14 3.141 3.141 0 0 1-3.14 3.14Z" fill="#fff"/>
  <path d="M20.977 26.942h-7.954a5.995 5.995 0 0 1-5.988-5.989V13a5.995 5.995 0 0 1 5.988-5.988h7.954A5.995 5.995 0 0 1 26.965 13v7.953a5.995 5.995 0 0 1-5.988 5.989ZM13.023 8.884A4.124 4.124 0 0 0 8.907 13v7.953a4.124 4.124 0 0 0 4.116 4.117h7.954a4.124 4.124 0 0 0 4.116-4.117V13a4.124 4.124 0 0 0-4.116-4.116h-7.954Z" fill="#fff"/>
</svg>