<svg xmlns="http://www.w3.org/2000/svg" version="1.1" xmlns:xlink="http://www.w3.org/1999/xlink" xmlns:svgjs="http://svgjs.com/svgjs" width="944.000000pt" height="944.000000pt"><svg version="1.0" xmlns="http://www.w3.org/2000/svg" width="944.000000pt" height="944.000000pt" viewBox="0 0 944.000000 944.000000" preserveAspectRatio="xMidYMid meet">
<g transform="translate(0.000000,944.000000) scale(0.100000,-0.100000)" fill="#000000" stroke="none">
<path d="M5309 8546 c-64 -26 -136 -86 -180 -150 -35 -51 -72 -126 -62 -126 3
0 1 -6 -5 -13 -28 -33 -45 -222 -28 -310 3 -18 8 -41 10 -52 2 -11 7 -39 10
-61 l7 -41 -49 12 c-133 35 -297 -28 -352 -136 -20 -38 -21 -133 -2 -180 17
-41 62 -89 101 -106 47 -20 165 -24 216 -6 22 7 57 28 77 47 39 36 100 125
112 164 11 34 39 27 99 -28 81 -74 135 -181 140 -276 l2 -37 -105 -42 c-58
-24 -134 -56 -170 -73 l-64 -30 -101 53 c-55 29 -131 70 -170 92 -274 157
-401 202 -560 197 -100 -3 -185 -12 -222 -23 -18 -5 -33 -8 -33 -6 0 10 -81
-31 -140 -70 -81 -54 -150 -126 -186 -195 -40 -77 -39 -170 3 -258 l30 -63
-30 -16 c-68 -35 -150 -104 -179 -151 -76 -123 -45 -328 67 -447 19 -21 35
-39 35 -40 0 -1 -24 -26 -52 -56 -29 -30 -60 -63 -68 -74 -27 -37 -77 -147
-86 -190 -14 -75 -15 -76 -67 -99 -176 -78 -293 -201 -353 -371 -23 -68 -28
-96 -28 -190 -1 -131 7 -191 34 -269 11 -33 20 -62 20 -65 0 -3 -29 -21 -64
-40 -120 -63 -203 -152 -244 -263 -17 -47 -21 -75 -18 -153 3 -90 2 -96 -18
-99 -12 -2 -79 -11 -151 -20 -71 -9 -141 -18 -155 -21 -43 -10 -55 -13 -57
-15 -2 -2 -6 -3 -10 -4 -88 -23 -206 -76 -257 -116 -50 -38 -146 -134 -146
-146 0 -7 -3 -14 -7 -16 -30 -13 -79 -156 -89 -258 -3 -36 -7 -66 -8 -67 -1
-1 -22 -5 -47 -7 -46 -6 -79 -12 -107 -20 -9 -3 -31 -8 -48 -11 -82 -13 -230
-102 -316 -188 -83 -83 -144 -190 -157 -274 l-7 -48 -23 60 c-13 33 -25 76
-29 95 -8 49 -7 159 2 200 7 33 62 143 89 177 42 54 215 221 287 278 47 37 93
73 103 81 9 8 42 29 73 46 31 18 70 41 87 52 134 78 312 243 365 337 65 114
78 253 34 352 -20 46 -100 137 -120 137 -7 0 -12 4 -12 9 0 10 -49 28 -97 37
-15 3 -29 7 -31 9 -9 9 -344 -94 -350 -107 -2 -5 -9 -8 -17 -8 -7 0 -56 -20
-109 -45 -53 -24 -96 -42 -96 -38 0 3 -6 0 -13 -6 -20 -16 -156 -59 -205 -65
-60 -6 -77 12 -56 62 16 38 38 65 139 167 85 85 302 276 374 330 56 42 118
118 151 186 88 181 83 322 -14 372 -29 16 -56 19 -129 18 -51 0 -103 -3 -117
-6 -13 -2 -42 -7 -65 -10 -125 -19 -310 -81 -491 -165 -110 -52 -186 -78 -253
-86 -32 -4 -42 -1 -50 15 -35 64 13 133 183 266 177 139 284 269 311 380 20
86 8 201 -29 272 -50 98 -218 133 -416 88 -8 -2 -26 -6 -39 -9 -13 -3 -65 -17
-115 -32 -100 -28 -96 -27 -180 -48 -58 -15 -106 -47 -106 -73 0 -17 42 -33
72 -27 13 2 34 6 48 9 14 2 59 16 100 30 145 50 297 74 422 67 31 -2 77 -44
79 -72 1 -11 2 -26 2 -32 5 -72 -60 -221 -125 -288 -50 -51 -117 -110 -125
-110 -3 0 -44 -40 -92 -88 -109 -111 -144 -177 -145 -271 0 -76 30 -151 72
-179 53 -35 211 -4 380 74 41 19 75 34 77 34 2 0 55 24 117 54 178 85 287 116
421 122 83 3 90 2 113 -21 29 -29 30 -44 5 -93 -28 -56 -103 -123 -238 -215
-278 -190 -339 -236 -407 -302 -184 -180 -252 -382 -161 -481 6 -6 21 -25 33
-42 49 -64 146 -79 277 -42 81 23 339 127 395 160 67 39 161 75 271 103 127
33 239 6 239 -56 0 -16 -7 -44 -16 -63 -32 -68 -187 -205 -379 -335 -44 -30
-86 -59 -92 -65 -7 -7 -29 -22 -50 -35 -21 -13 -40 -26 -43 -29 -3 -3 -50 -35
-105 -71 -106 -69 -239 -192 -293 -271 -88 -129 -121 -238 -117 -390 2 -57 8
-125 14 -153 7 -27 13 -57 14 -65 1 -8 13 -47 25 -86 52 -162 165 -298 314
-376 51 -27 105 -71 130 -107 22 -31 11 -59 -49 -125 -71 -80 -129 -178 -172
-294 -20 -52 -23 -75 -18 -130 9 -101 87 -296 136 -338 30 -26 31 -68 1 -128
-66 -136 -51 -322 36 -448 80 -114 270 -213 489 -252 17 -3 41 -8 55 -11 123
-26 645 -26 820 0 14 2 55 6 92 10 37 3 75 7 85 9 17 4 102 14 168 21 28 3 62
9 111 19 12 2 39 7 60 10 22 4 46 8 54 11 8 2 31 6 50 9 19 4 121 24 225 46
105 22 204 43 220 46 17 3 55 12 85 19 30 8 71 17 90 19 19 3 55 10 80 17 25
6 61 12 80 14 37 4 244 58 375 99 44 13 113 35 153 47 l73 22 57 -22 c31 -13
81 -34 110 -47 29 -13 58 -24 65 -24 7 0 17 -4 22 -8 6 -5 30 -17 55 -27 25
-9 56 -22 70 -28 14 -6 28 -11 33 -12 4 -2 9 -4 12 -5 3 -1 8 -3 13 -4 4 -1
25 -10 46 -19 21 -10 57 -24 80 -31 23 -8 76 -28 119 -44 42 -17 77 -28 77
-25 0 3 6 1 13 -4 6 -6 44 -20 82 -32 39 -13 79 -26 90 -31 11 -5 81 -27 155
-50 74 -23 146 -45 160 -50 26 -9 101 -29 132 -35 10 -2 22 -6 26 -9 5 -3 22
-8 38 -11 40 -8 59 -13 59 -15 0 -1 9 -3 20 -4 11 -2 58 -13 105 -24 47 -11
99 -23 115 -26 17 -3 41 -7 55 -11 14 -3 41 -8 60 -11 19 -2 49 -8 65 -11 17
-3 39 -7 50 -9 11 -1 58 -7 104 -14 46 -6 113 -14 150 -17 87 -7 401 -9 401
-3 0 3 17 5 38 6 72 2 167 16 272 40 36 9 72 17 81 19 47 10 195 83 285 140
66 42 193 171 243 246 78 116 92 218 55 409 -15 80 -57 192 -94 249 l-39 60
65 78 c65 77 114 150 118 175 1 7 5 18 8 24 12 19 0 187 -17 234 -30 84 -67
149 -115 202 -27 29 -49 58 -50 65 0 18 50 55 125 93 90 46 210 162 258 250
94 174 135 436 93 598 -50 195 -175 346 -431 518 -294 198 -454 316 -542 400
-35 33 -63 63 -63 67 0 4 -9 17 -20 29 -11 12 -21 32 -21 45 -1 13 -2 31 -3
40 0 10 15 28 34 41 32 22 42 24 116 19 89 -6 269 -61 335 -103 21 -13 41 -24
43 -24 3 0 38 -15 78 -33 40 -19 91 -39 113 -47 22 -7 58 -21 80 -30 71 -32
76 -33 125 -43 144 -28 187 -21 247 40 98 102 109 185 41 318 -88 174 -185
261 -604 541 -146 97 -230 200 -212 256 18 54 115 64 267 27 47 -11 93 -22
101 -24 36 -8 102 -36 195 -82 237 -116 404 -176 489 -175 66 1 93 19 122 80
72 153 6 288 -241 497 -105 89 -125 109 -125 122 0 7 -4 13 -9 13 -4 0 -24 35
-44 78 -45 99 -54 175 -27 219 27 45 46 52 135 48 139 -7 219 -22 345 -65 103
-35 164 -47 197 -38 60 16 12 83 -67 93 -8 2 -49 12 -90 25 -41 12 -93 26
-115 31 -22 6 -56 14 -75 18 -19 5 -42 11 -50 14 -29 11 -105 19 -190 21 -122
3 -186 -25 -237 -99 -13 -19 -21 -35 -18 -35 3 0 0 -10 -6 -22 -16 -29 -21
-199 -7 -215 6 -7 8 -13 5 -13 -11 0 32 -89 64 -137 45 -65 106 -124 239 -233
127 -105 162 -139 184 -183 16 -33 13 -86 -5 -98 -13 -8 -71 -2 -117 13 -18 5
-39 11 -45 12 -13 3 -29 9 -194 85 -62 28 -117 51 -123 51 -6 0 -18 4 -28 10
-65 37 -303 89 -429 93 -148 6 -207 -20 -231 -101 -36 -120 54 -352 175 -448
68 -55 160 -132 212 -179 25 -22 60 -53 79 -70 88 -77 236 -233 248 -262 28
-65 18 -79 -51 -74 -56 5 -244 74 -410 152 -47 22 -265 94 -315 104 -95 19
-177 -8 -255 -83 -57 -55 -99 -153 -98 -227 3 -189 143 -376 410 -548 24 -15
45 -27 48 -27 3 0 11 -4 18 -10 7 -5 48 -33 92 -62 44 -29 82 -55 85 -58 3 -3
32 -27 65 -54 162 -130 294 -284 336 -395 21 -56 29 -175 16 -231 -3 -14 -8
-34 -11 -45 -2 -11 -12 -36 -20 -55 l-16 -35 4 39 c5 50 -8 87 -57 161 -54 81
-140 162 -239 228 -128 85 -174 105 -339 149 -202 53 -219 57 -318 64 -47 3
-92 8 -100 9 -9 2 -19 4 -23 4 -4 1 -4 11 1 24 8 23 7 142 -2 187 -14 70 -21
91 -55 158 -39 80 -113 157 -184 193 -64 33 -190 72 -268 83 -29 5 -75 13
-110 22 -14 3 -97 7 -185 9 -88 2 -161 4 -162 5 -2 0 13 29 32 65 19 36 32 65
28 65 -3 0 -1 6 5 13 10 12 49 109 57 144 3 10 12 47 21 83 41 170 4 316 -110
423 -74 71 -82 77 -90 77 -4 0 -22 12 -41 27 l-34 27 24 45 c66 117 63 253 -8
396 -30 61 -87 140 -119 163 -9 7 -23 18 -30 26 -7 7 -34 26 -58 42 -25 16
-48 32 -53 35 -4 3 2 37 14 75 12 38 23 76 24 84 2 8 4 15 5 15 11 0 14 116 5
194 -8 73 -33 129 -98 214 -44 57 -44 59 -30 88 8 17 16 35 17 42 1 7 4 17 8
22 25 43 25 151 -1 210 -64 145 -152 217 -319 264 -79 22 -76 21 -96 21 -10 0
-19 20 -26 56 -22 104 -108 244 -217 353 -109 108 -107 103 -109 250 -4 258
55 382 239 501 62 40 65 43 56 68 -12 31 -45 56 -76 58 -12 0 -46 -9 -74 -20z
m-256 -898 c7 -11 3 -27 -14 -58 -36 -65 -67 -84 -139 -83 -86 1 -119 34 -98
95 15 42 40 60 103 74 57 12 132 -2 148 -28z m-744 -371 c119 -32 234 -82 329
-144 36 -24 69 -43 73 -43 5 0 9 -4 9 -8 0 -4 12 -15 28 -25 32 -20 97 -76 91
-80 -6 -4 -142 -65 -159 -71 -8 -3 -22 -10 -30 -15 -8 -5 -41 -21 -74 -36
l-58 -26 -82 35 c-131 56 -199 70 -336 70 -134 1 -237 -18 -301 -54 -34 -18
-89 66 -89 137 0 75 65 150 180 208 110 56 136 62 270 60 69 -1 136 -5 149 -8z
m1366 -126 c61 -23 139 -91 167 -144 27 -53 31 -145 8 -207 -25 -70 -50 -111
-62 -104 -6 4 -21 8 -32 10 -12 2 -41 6 -66 11 -53 9 -272 9 -350 -1 -67 -8
-207 -40 -275 -63 -27 -10 -52 -18 -55 -18 -3 -1 -18 -7 -35 -14 -39 -16 -56
-11 -166 54 -52 31 -105 61 -117 69 -13 7 -24 17 -24 21 0 5 57 39 126 76
l126 67 53 -28 c183 -99 348 -55 460 122 31 48 57 109 63 147 2 8 8 17 14 21
18 11 114 0 165 -19z m-293 -57 c-24 -65 -69 -99 -123 -90 -39 6 -79 25 -79
37 0 7 163 79 179 79 6 0 11 5 11 10 0 6 7 10 15 10 12 0 11 -7 -3 -46z
m-1243 -299 c35 -7 89 -25 117 -40 19 -9 21 -15 12 -22 -18 -15 -58 -26 -96
-28 -17 -1 -34 -4 -37 -7 -8 -7 -132 27 -172 47 -52 26 -43 38 42 51 22 3 41
7 43 9 4 3 50 -2 91 -10z m-319 -95 c44 -22 81 -39 82 -38 2 0 26 -6 53 -15
69 -22 99 -28 182 -32 71 -3 188 16 207 35 18 18 44 10 110 -32 36 -24 106
-69 156 -101 49 -32 90 -61 90 -65 0 -8 -101 -68 -176 -105 -27 -14 -97 -42
-155 -62 -105 -37 -140 -40 -229 -20 -71 15 -256 22 -325 11 -70 -11 -82 -14
-114 -30 -16 -9 -38 -16 -49 -16 -45 0 -122 122 -128 205 -1 22 -4 42 -5 45
-2 7 -2 9 5 53 8 47 46 108 88 141 27 20 112 65 126 66 1 0 38 -18 82 -40z
m1832 -65 c26 -3 60 -10 75 -14 l27 -7 -54 -41 c-202 -151 -413 -171 -605 -58
-25 14 -45 30 -45 34 0 19 184 74 292 87 29 3 54 7 55 8 6 5 212 -2 255 -9z
m248 -72 c49 -29 73 -86 77 -183 4 -99 -9 -163 -48 -242 l-28 -56 -83 2 c-46
1 -104 -1 -130 -4 -29 -4 -45 -3 -41 3 3 6 1 7 -4 4 -11 -7 -44 -12 -133 -22
-92 -10 -177 -21 -220 -31 -28 -5 -65 -12 -110 -19 -17 -2 -34 -6 -38 -9 -4
-2 -27 -7 -52 -11 -25 -4 -48 -9 -52 -11 -4 -3 -56 11 -115 31 -60 20 -112 38
-118 39 -5 2 -21 8 -35 13 -14 6 -95 34 -180 63 -85 29 -156 54 -157 55 -1 0
21 13 50 28 80 41 131 71 145 84 6 6 21 15 32 18 11 3 20 11 20 16 0 5 4 9 9
9 5 0 32 14 60 31 l49 31 49 -33 c195 -136 379 -204 522 -194 70 5 160 29 206
54 110 59 216 178 267 301 11 28 23 50 25 50 3 0 18 -7 33 -17z m-1996 -467
c21 -3 77 -18 125 -32 47 -14 91 -27 96 -28 6 -2 17 -6 25 -9 8 -3 49 -18 90
-32 41 -15 79 -32 84 -36 6 -5 16 -9 22 -9 10 0 84 -32 259 -115 l29 -14 -149
-71 c-220 -106 -259 -123 -270 -122 -5 0 -30 8 -55 17 -110 41 -334 103 -435
120 -16 3 -44 8 -62 11 -45 8 -99 12 -171 13 l-62 1 6 28 c4 15 15 41 25 57
10 17 26 44 35 62 35 69 132 147 196 156 10 2 20 6 23 9 6 6 134 2 189 -6z
m1902 -119 c4 -3 -10 -22 -30 -42 -120 -116 -264 -142 -433 -76 -44 17 -86 38
-93 46 -11 14 -4 18 47 30 10 3 36 9 59 14 54 14 102 20 194 27 41 3 75 6 77
7 5 6 173 0 179 -6z m219 -37 c60 -29 118 -89 149 -156 65 -136 72 -259 21
-353 l-28 -51 -61 6 c-72 7 -366 6 -416 -1 -19 -2 -62 -7 -95 -10 -33 -4 -89
-11 -125 -16 -36 -6 -76 -12 -90 -13 -33 -5 -267 -54 -305 -64 -16 -5 -37 -5
-45 -1 -13 7 -119 52 -425 179 -55 23 -113 48 -130 55 -16 7 -49 20 -73 31
l-44 18 99 47 c54 26 144 68 200 93 l103 46 53 -24 c29 -14 77 -34 107 -46 30
-12 69 -27 85 -35 35 -15 169 -61 190 -65 3 -1 19 -6 37 -11 93 -27 232 -38
311 -24 52 9 120 39 164 72 39 30 133 124 133 134 0 3 8 16 19 27 10 12 36 57
57 101 21 44 45 80 53 80 8 1 34 -8 56 -19z m-2366 -336 c35 -8 85 -25 110
-38 25 -12 49 -23 54 -24 4 -1 22 -9 39 -18 l33 -17 -25 -9 c-14 -5 -33 -11
-43 -13 -9 -2 -21 -6 -26 -9 -11 -7 -119 -20 -151 -18 -69 3 -108 18 -153 61
-46 42 -75 110 -42 98 8 -4 16 -3 19 1 7 11 110 3 185 -14z m-282 -44 c47
-138 163 -213 318 -205 62 3 88 6 170 20 11 2 40 11 65 20 73 27 83 27 135 4
28 -13 52 -24 55 -24 3 -1 23 -10 45 -19 22 -10 72 -32 110 -48 39 -17 93 -40
120 -53 28 -12 96 -41 152 -65 57 -24 102 -44 100 -45 -1 -1 -99 -43 -217 -93
-255 -107 -328 -140 -335 -152 -6 -9 -9 -9 -60 11 -16 7 -39 14 -50 16 -11 2
-31 7 -45 13 -14 5 -45 12 -70 15 -25 3 -65 9 -90 12 -79 11 -435 5 -435 -7 0
-1 -13 -4 -30 -6 -16 -3 -72 -16 -124 -30 -51 -14 -99 -23 -106 -20 -13 5 -52
79 -61 117 -7 27 -7 136 -1 189 6 49 45 177 69 225 43 84 178 179 247 172 18
-2 27 -12 38 -47z m2646 -289 c13 -2 -22 -59 -61 -99 -49 -51 -106 -84 -166
-98 -59 -14 -173 -16 -241 -3 -27 4 -65 11 -84 14 -19 3 -43 11 -55 17 -11 6
-23 11 -26 10 -14 -5 -180 57 -180 67 0 4 6 8 13 8 6 0 39 6 72 14 33 7 65 14
70 14 6 1 30 5 55 10 25 5 54 10 65 11 81 11 113 16 135 19 14 3 70 8 125 11
55 3 101 7 102 8 1 1 161 -1 176 -3z m252 -75 c56 -26 119 -90 142 -145 38
-89 14 -233 -59 -353 -63 -104 -154 -214 -181 -216 -4 -1 -14 -8 -22 -16 -17
-16 -125 -54 -182 -64 -52 -8 -308 -8 -363 1 -25 4 -64 9 -86 12 -120 15 -420
90 -600 151 -44 14 -83 27 -89 29 -5 1 -23 7 -40 14 -16 6 -50 19 -75 27 -25
9 -55 20 -67 25 -13 5 -33 13 -45 18 -65 25 -289 117 -328 135 -25 11 -48 19
-52 18 -5 -1 -8 5 -8 13 0 8 3 15 8 16 18 2 42 9 102 32 36 13 108 39 160 57
52 17 104 36 115 40 32 14 137 51 169 61 23 7 43 1 110 -30 122 -58 232 -103
240 -98 1 1 10 -4 19 -12 10 -7 17 -10 17 -6 0 4 6 3 13 -3 13 -11 243 -80
292 -88 43 -7 128 -16 140 -15 77 3 192 42 280 93 81 48 224 186 280 271 21
31 43 57 49 57 6 0 34 -11 61 -24z m-2705 -381 c74 -8 182 -44 177 -58 -2 -7
-8 -12 -13 -13 -5 0 -21 -6 -36 -12 -142 -59 -313 -58 -438 1 -39 19 -107 66
-98 68 6 1 53 6 133 14 44 4 81 8 82 9 4 4 140 -3 193 -9z m-510 -75 c9 -14
123 -82 167 -102 95 -42 240 -60 300 -37 18 6 22 6 17 -3 -4 -6 -3 -8 3 -5 6
4 28 9 49 12 22 4 46 8 54 10 8 3 33 7 55 11 50 7 184 43 207 55 17 9 59 -5
188 -63 70 -32 233 -99 255 -106 11 -3 22 -8 25 -11 3 -3 23 -12 45 -20 22 -7
58 -22 80 -31 113 -51 482 -172 623 -205 88 -21 108 -27 114 -34 5 -4 -2 -7
-15 -8 -19 0 -58 -7 -152 -26 -34 -7 -169 -30 -190 -32 -11 -1 -27 -5 -35 -8
-13 -5 -107 -22 -180 -32 -14 -2 -38 -6 -55 -10 -16 -3 -79 -14 -139 -25
l-108 -20 -112 36 c-61 19 -131 41 -156 49 -53 15 -326 85 -356 91 -12 2 -64
13 -117 24 -101 20 -268 49 -327 55 -19 2 -66 7 -105 11 -98 10 -385 12 -412
2 -32 -11 -41 12 -38 97 3 80 32 165 72 214 68 82 215 149 243 111z m3525
-424 c142 -16 147 -17 274 -42 52 -11 184 -67 234 -101 146 -98 191 -205 161
-385 -6 -38 -6 -38 -52 -38 -185 -2 -470 -14 -605 -26 -31 -2 -85 -7 -120 -9
-90 -6 -197 -15 -237 -20 -19 -3 -57 -7 -85 -10 -27 -3 -70 -7 -95 -10 -25 -3
-65 -7 -90 -10 -25 -2 -61 -6 -80 -9 -19 -3 -55 -8 -80 -11 -25 -2 -54 -6 -65
-9 -11 -2 -47 -7 -80 -10 -33 -4 -71 -9 -85 -11 -23 -4 -83 -13 -135 -20 -134
-17 -129 -18 -196 10 -80 34 -273 128 -359 175 -36 20 -68 36 -73 37 -4 1 -75
39 -157 84 -133 73 -172 105 -122 98 10 -2 42 3 72 9 69 14 105 21 154 27 21
3 42 7 45 9 4 3 25 7 47 10 22 4 51 9 64 11 14 3 42 8 63 11 49 8 72 12 72 14
0 1 11 3 25 5 14 1 77 12 140 25 164 31 175 32 234 15 29 -9 66 -18 82 -20 16
-2 52 -8 79 -13 53 -9 216 -8 275 1 149 24 291 91 403 190 l38 34 107 -3 c59
-2 125 -5 147 -8z m-3972 -137 c42 -2 52 -7 77 -40 46 -57 181 -143 297 -187
26 -11 57 -23 68 -27 24 -10 20 -9 70 -22 36 -10 72 -16 170 -29 17 -2 107 -4
200 -5 200 -1 292 5 496 32 66 8 84 7 145 -11 38 -12 78 -25 89 -29 11 -5 43
-17 70 -26 83 -29 143 -56 285 -127 125 -62 339 -193 353 -215 6 -9 -36 -16
-238 -39 -22 -3 -51 -7 -65 -11 -14 -3 -41 -7 -60 -8 -19 -2 -62 -6 -95 -10
-125 -16 -163 -11 -349 44 -98 29 -188 55 -200 57 -11 2 -30 6 -41 9 -50 12
-122 27 -142 30 -11 2 -29 6 -40 9 -10 3 -33 8 -52 11 -19 3 -37 8 -41 10 -3
2 -29 7 -56 10 -27 4 -57 9 -67 11 -10 3 -32 7 -50 9 -29 4 -87 13 -127 20 -8
1 -42 6 -75 9 -33 4 -73 9 -90 11 -16 2 -59 7 -95 10 -36 4 -83 8 -105 10
-265 24 -748 24 -986 0 -30 -3 -63 -7 -74 -8 -18 -2 -20 3 -18 50 7 143 100
282 243 362 59 33 75 40 155 61 68 18 78 20 150 26 39 3 71 7 72 8 1 1 49 -1
126 -5z m467 -13 c222 -21 460 -73 648 -142 98 -36 112 -46 74 -50 -9 -1 -44
-5 -77 -10 -70 -10 -367 -10 -440 0 -142 20 -288 72 -396 143 -114 74 -113 77
26 69 66 -3 140 -8 165 -10z m4355 -521 c22 -3 54 -8 70 -10 28 -4 69 -10 140
-21 97 -15 338 -118 450 -193 134 -89 232 -213 240 -306 2 -16 4 -34 5 -40 1
-5 2 -17 1 -26 -1 -20 -145 -167 -236 -242 l-66 -55 -92 43 c-136 64 -340 127
-491 150 -21 4 -48 9 -60 11 -60 12 -187 30 -278 39 -27 3 -69 7 -95 10 -277
31 -986 36 -1403 10 -130 -8 -259 -18 -315 -24 -60 -7 -60 -7 -210 68 -82 42
-151 79 -153 83 -2 4 -9 8 -15 8 -7 0 -62 26 -123 58 -61 31 -138 71 -172 87
-34 17 -61 33 -62 36 0 5 84 26 140 34 8 2 29 5 45 9 17 3 53 10 80 15 28 6
61 13 75 16 14 3 36 8 50 10 14 2 37 7 52 10 20 4 52 -7 118 -41 89 -44 320
-126 410 -145 41 -8 103 -20 170 -33 14 -3 34 -7 45 -9 11 -3 58 -9 105 -15
47 -7 105 -14 130 -18 102 -15 390 -8 470 11 14 3 37 8 51 10 186 27 499 168
625 281 81 73 104 95 142 141 48 56 43 55 157 38z m-288 -49 c-85 -80 -228
-149 -352 -171 -16 -2 -39 -7 -50 -9 -101 -20 -574 -29 -690 -13 -27 3 -72 9
-100 12 -27 4 -93 15 -145 26 -121 25 -127 26 -174 43 l-40 14 45 7 c24 4 53
9 64 11 110 23 184 36 218 37 9 1 17 5 17 10 0 4 4 6 9 2 6 -3 38 -1 73 4 78
13 142 21 188 26 19 1 58 6 85 9 117 13 245 25 359 31 49 2 90 6 92 7 1 2 105
4 231 6 l228 3 -58 -55z m-4352 -40 c80 -7 94 -9 173 -21 23 -4 52 -8 65 -10
177 -23 508 -110 652 -170 50 -22 29 -34 -90 -50 -11 -2 -33 -6 -50 -8 -34 -6
-110 -16 -175 -23 -25 -3 -61 -7 -80 -9 -19 -2 -64 -7 -100 -10 -36 -4 -81 -8
-100 -10 -19 -2 -66 -7 -105 -10 -38 -4 -86 -9 -105 -11 -77 -10 -298 -12
-350 -4 -30 5 -74 11 -97 14 -170 22 -351 91 -448 171 -41 33 -100 113 -91
122 12 12 118 24 271 29 87 3 160 6 161 7 5 5 397 -1 469 -7z m-1002 -49 c7
-6 25 -31 41 -54 63 -93 180 -181 312 -234 85 -34 83 -33 174 -53 172 -38 374
-41 710 -10 25 2 81 6 125 9 114 8 192 14 250 20 48 5 87 8 226 20 88 8 205
21 269 32 65 11 115 7 185 -16 39 -12 75 -24 80 -25 15 -4 28 -9 170 -60 132
-48 286 -107 340 -131 130 -57 174 -79 171 -84 -3 -4 -19 -8 -38 -9 -18 -1
-55 -6 -83 -12 -27 -5 -67 -12 -87 -15 -21 -3 -55 -7 -75 -10 -21 -3 -49 -8
-63 -10 -84 -15 -134 -23 -175 -29 -36 -5 -90 -14 -128 -22 -16 -3 -38 -7 -50
-9 -24 -3 -86 -14 -121 -21 -11 -2 -48 -9 -81 -14 -33 -6 -114 -22 -180 -36
-145 -31 -136 -30 -210 -11 -33 9 -71 18 -85 21 -14 3 -36 8 -50 11 -14 3 -41
8 -60 11 -19 3 -42 7 -50 9 -8 2 -37 7 -65 11 -27 3 -59 8 -70 10 -30 6 -129
18 -230 29 -22 2 -69 7 -105 11 -36 4 -86 8 -112 8 -27 1 -48 3 -48 6 0 3 -24
5 -53 6 -28 0 -106 4 -172 9 -274 17 -462 11 -635 -20 -89 -16 -267 -68 -325
-95 -43 -20 -31 -26 -194 103 -49 39 -94 84 -105 105 -25 48 -31 135 -13 193
14 47 66 132 109 179 72 80 188 139 329 168 114 23 157 25 172 9z m5022 -561
c122 -8 212 -15 260 -21 22 -3 63 -8 90 -10 28 -3 61 -8 75 -11 14 -3 43 -7
65 -10 22 -3 51 -7 65 -10 14 -3 39 -7 55 -10 17 -3 48 -10 70 -16 22 -6 49
-12 60 -13 22 -4 112 -28 195 -52 30 -10 57 -18 60 -18 3 -1 16 -6 30 -12 14
-6 42 -16 63 -24 61 -22 63 -33 9 -57 -152 -67 -371 -128 -529 -147 -24 -3
-62 -8 -85 -11 -237 -32 -463 -36 -616 -10 -17 3 -44 8 -59 11 -78 12 -105 18
-188 36 -49 12 -97 22 -105 24 -8 2 -40 10 -71 19 -31 9 -65 18 -75 20 -29 6
-354 115 -394 133 -19 8 -44 19 -55 23 -144 57 -238 100 -233 106 4 4 46 9
148 19 30 3 73 7 95 10 22 2 72 7 110 10 39 4 86 9 105 11 19 1 102 6 185 9
82 3 150 7 151 8 5 4 434 -2 519 -7z m-1699 -147 c210 -99 607 -247 734 -274
8 -2 67 -17 131 -33 64 -17 134 -33 155 -36 22 -4 55 -11 74 -16 19 -5 51 -11
70 -14 19 -3 44 -7 55 -10 11 -2 42 -7 68 -10 27 -4 56 -9 65 -11 139 -25 469
-26 633 0 85 13 126 19 139 20 13 1 52 8 125 21 77 14 143 29 225 51 52 13
103 26 112 28 40 8 322 107 342 120 12 8 26 11 31 7 24 -17 77 -95 115 -169
68 -134 63 -235 -18 -358 -43 -67 -119 -145 -139 -145 -7 0 -30 10 -51 23 -74
45 -268 115 -397 142 -11 3 -31 7 -45 10 -165 35 -292 56 -425 70 -27 3 -66 7
-85 10 -126 17 -500 28 -500 15 0 -3 -24 -5 -53 -6 -57 -1 -241 -14 -269 -19
-10 -2 -51 -6 -91 -10 -40 -3 -81 -7 -92 -9 -11 -2 -49 -7 -85 -10 -36 -4 -81
-9 -100 -11 -19 -3 -57 -7 -85 -10 -55 -6 -102 -12 -240 -31 -27 -4 -55 -7
-60 -7 -6 0 -75 26 -155 58 -79 31 -149 58 -155 60 -5 1 -19 5 -30 9 -11 5
-42 16 -70 27 -27 10 -129 44 -225 75 -96 31 -182 58 -190 62 -8 3 -17 6 -20
6 -5 1 -19 5 -170 52 -47 14 -92 27 -100 29 -8 2 -55 15 -105 30 -49 15 -97
28 -105 29 -8 1 -25 6 -37 10 -12 4 -30 9 -40 11 -10 2 -49 13 -88 25 -38 11
-82 22 -97 25 -76 14 -71 21 28 43 55 12 110 24 124 27 14 3 50 10 80 16 30 6
66 12 80 14 14 2 41 6 60 9 96 18 154 27 178 31 58 7 118 16 142 20 47 9 85
14 140 20 30 3 62 8 70 10 8 2 42 7 74 10 33 2 61 6 63 8 2 2 25 5 52 6 40 1
68 -8 157 -50z m-2716 -3 c117 -11 185 -19 250 -32 14 -2 38 -7 54 -10 120
-21 308 -79 386 -119 l45 -23 -55 -11 c-85 -17 -208 -37 -280 -46 -14 -2 -50
-6 -80 -10 -87 -11 -111 -14 -185 -20 -38 -4 -86 -8 -105 -10 -52 -5 -191 -6
-225 -1 -16 2 -64 7 -105 11 -41 4 -77 8 -80 10 -3 1 -32 6 -65 10 -32 3 -63
9 -68 12 -5 3 -23 7 -40 9 -48 4 -203 52 -249 75 l-41 21 43 25 c38 23 200 86
200 78 0 -1 19 2 43 7 71 16 79 18 157 24 41 3 76 7 77 8 5 4 251 -2 323 -8z
m-880 -186 c52 -37 256 -110 350 -125 14 -2 36 -7 50 -9 61 -13 294 -39 328
-37 23 2 36 2 137 1 121 0 280 11 365 25 14 2 45 7 70 10 25 3 56 8 70 10 14
3 41 7 60 10 19 3 82 15 140 26 58 11 116 22 130 24 14 2 39 8 57 14 17 5 34
7 37 4 3 -3 16 -7 28 -9 13 -1 88 -21 168 -44 80 -23 153 -43 162 -45 9 -2 26
-9 37 -15 12 -6 21 -8 21 -5 0 3 16 -1 35 -9 20 -9 39 -16 43 -17 17 -4 32 -8
117 -35 50 -15 95 -29 100 -30 16 -3 219 -72 340 -116 60 -22 119 -42 130 -45
11 -2 29 -9 40 -13 21 -10 283 -109 300 -115 47 -14 55 -18 55 -26 0 -5 -6 -9
-12 -10 -7 0 -20 -2 -28 -4 -8 -2 -69 -15 -135 -29 -66 -15 -124 -28 -130 -30
-5 -1 -32 -7 -60 -11 -64 -11 -57 -10 -80 -18 -11 -3 -36 -9 -55 -12 -19 -3
-110 -22 -202 -42 l-166 -36 -109 42 c-59 24 -117 47 -128 51 -72 31 -452 141
-542 156 -48 8 -69 13 -114 23 -25 6 -63 13 -85 16 -21 2 -52 8 -69 11 -38 8
-52 10 -155 22 -262 33 -460 42 -605 28 -105 -11 -145 -18 -238 -40 -183 -43
-453 -171 -592 -281 -22 -17 -45 -34 -51 -38 -14 -8 -72 78 -98 143 -34 86
-44 130 -44 202 0 60 5 83 34 146 19 41 54 103 79 137 48 68 150 165 173 165
8 0 26 -9 42 -20z m5455 -454 c44 -4 94 -9 110 -12 17 -3 50 -7 75 -10 25 -2
59 -6 75 -9 17 -2 44 -6 60 -9 17 -3 55 -10 85 -16 30 -6 67 -13 81 -15 157
-28 499 -146 499 -172 0 -12 -94 -67 -166 -97 -56 -23 -207 -67 -244 -71 -8
-1 -24 -4 -35 -8 -11 -3 -40 -8 -65 -11 -25 -3 -56 -8 -70 -11 -63 -12 -211
-20 -395 -19 -199 0 -260 4 -365 24 -30 6 -68 13 -85 16 -46 7 -152 34 -230
56 -38 11 -71 20 -72 20 -2 -1 -22 6 -45 14 -24 9 -52 17 -64 20 -11 2 -72 22
-135 45 -63 22 -125 44 -139 49 -31 10 -254 101 -258 105 -12 11 243 59 373
70 22 2 40 5 40 5 0 2 62 8 155 15 47 3 101 8 120 10 19 2 98 7 175 10 76 3
140 7 141 8 5 5 306 -1 379 -7z m-4405 -81 c25 -4 104 -18 175 -32 72 -13 141
-26 155 -29 14 -3 33 -7 42 -10 9 -3 25 -6 35 -8 10 -2 65 -16 123 -31 58 -15
110 -28 115 -29 34 -8 104 -28 125 -36 14 -5 86 -27 160 -51 74 -23 139 -44
144 -47 5 -3 -9 -11 -30 -18 -45 -15 -250 -74 -273 -79 -9 -2 -28 -8 -43 -14
-16 -6 -28 -9 -28 -6 0 2 -18 -2 -40 -10 -22 -8 -40 -12 -40 -10 0 3 -10 1
-23 -4 -13 -5 -41 -12 -63 -15 -21 -4 -55 -11 -74 -16 -19 -5 -48 -12 -65 -14
-16 -3 -41 -8 -55 -11 -14 -3 -41 -8 -60 -11 -19 -2 -46 -7 -60 -9 -65 -12
-95 -16 -148 -20 -31 -2 -57 -5 -57 -6 0 -8 -414 -12 -490 -4 -22 2 -70 6
-107 9 -172 15 -367 67 -491 131 -105 53 -111 64 -67 110 131 136 392 241 675
271 33 3 61 7 63 9 6 6 359 -3 402 -10z m2627 -150 c62 -30 115 -55 117 -55 2
0 37 -15 78 -34 116 -54 212 -94 311 -132 51 -19 101 -39 112 -44 43 -20 315
-109 315 -103 0 3 6 1 13 -4 10 -8 51 -22 72 -24 2 0 35 -9 72 -20 38 -11 77
-21 88 -24 11 -2 29 -6 40 -8 48 -11 173 -36 200 -41 120 -19 145 -22 253 -32
524 -50 968 102 1179 404 l37 52 28 -43 c57 -88 94 -230 92 -352 -2 -137 -15
-168 -103 -253 -126 -119 -384 -205 -688 -229 -171 -13 -456 -7 -557 12 -15 3
-47 7 -70 9 -22 2 -48 6 -56 9 -8 3 -22 5 -30 5 -8 0 -26 3 -40 6 -14 3 -52
11 -85 17 -33 6 -127 26 -210 46 -82 19 -159 36 -170 39 -11 2 -67 17 -125 33
-58 15 -118 32 -135 36 -16 5 -32 9 -35 10 -3 1 -25 7 -50 14 -25 7 -66 19
-91 28 -25 8 -52 15 -60 17 -22 4 -400 125 -479 154 -8 3 -19 6 -25 8 -9 2
-55 18 -275 95 -47 17 -94 34 -105 39 -11 4 -49 18 -85 30 -36 13 -76 27 -90
33 -14 5 -29 11 -35 13 -11 2 -313 119 -355 137 -29 12 -36 14 -52 16 -19 2
-3 12 28 17 16 2 40 7 54 11 34 9 41 10 75 16 75 14 93 18 135 27 25 6 59 12
75 14 17 3 53 10 80 16 28 6 59 13 70 15 11 2 34 7 50 10 17 3 41 8 55 11 14
2 77 15 140 28 63 13 117 24 120 25 3 1 56 -24 117 -54z m-3812 -231 c69 -49
194 -107 295 -137 106 -31 163 -45 215 -51 17 -3 46 -7 65 -10 229 -38 590
-41 744 -6 26 6 61 12 79 15 17 2 57 9 87 15 30 7 64 13 75 15 11 1 38 8 60
13 22 6 53 13 69 16 24 4 123 25 146 31 3 1 32 7 65 14 33 8 65 14 70 16 6 1
17 5 25 8 8 3 40 11 70 17 30 7 117 27 193 46 76 19 148 34 160 34 19 0 140
-44 262 -95 17 -7 133 -52 258 -101 234 -90 244 -97 158 -108 -14 -2 -33 -6
-41 -9 -8 -4 -26 -9 -40 -11 -14 -3 -36 -8 -50 -11 -14 -3 -36 -8 -49 -11 -12
-3 -53 -12 -90 -20 -95 -23 -99 -24 -122 -29 -11 -2 -29 -7 -39 -10 -10 -3
-27 -8 -37 -10 -10 -2 -56 -13 -103 -24 -47 -11 -97 -22 -110 -24 -14 -3 -83
-19 -155 -37 -71 -18 -139 -34 -150 -36 -11 -2 -30 -6 -42 -9 -13 -3 -35 -7
-50 -10 -16 -3 -59 -12 -98 -20 -74 -15 -127 -25 -160 -30 -11 -2 -65 -10
-120 -19 -92 -14 -125 -19 -210 -30 -31 -4 -143 -16 -205 -21 -246 -23 -634
-23 -746 -1 -12 2 -45 7 -75 11 -30 4 -57 9 -60 11 -3 2 -21 6 -40 9 -129 22
-224 68 -305 149 -103 103 -140 222 -110 356 9 41 48 140 55 140 3 0 29 -16
56 -36z"></path>
</g>
</svg><style>@media (prefers-color-scheme: light) { :root { filter: none; } }
@media (prefers-color-scheme: dark) { :root { filter: invert(100%); } }
</style></svg>