<svg fill="none" xmlns="http://www.w3.org/2000/svg" viewBox="0 0 59 50"><path fill-rule="evenodd" clip-rule="evenodd" d="M52.218 34.096c.283.36.338.684.255 1.085.006.024.01.048.015.073l.116-.294c.152-.387.504-1.61-.255-2.638-.283-.477-.704-.89-1.111-1.278a13.035 13.035 0 0 0-1.43-1.173c-.258-.186-.533-.35-.81-.515a9.415 9.415 0 0 1-.956-.625c-.96-.739-1.795-1.491-1.947-2.734-.069-.539.097-1.215.546-1.657.434-.428.91-.698 1.49-.587.55.11 1.08.298 1.612.486l.307.108c.058.02.204.085.402.175.71.321 2.094.948 2.553.867.2.014.269-.11.22-.276a1.005 1.005 0 0 0-.214-.407l-.152-.165c-.316-.341-.635-.686-.98-.995l-.232-.209c-.626-.56-1.251-1.118-1.914-1.628-.89-.69-1.926-3.342-.166-3.425 2.065-.099 4.197.966 4.792 1.263.07.035.118.059.143.07.504.214.856.324 1.319.359.207.014.255-.131.255-.332.008-.478-.543-.914-1.192-1.428-1.085-.86-2.443-1.936-1.92-3.785.165-.566.683-1.422 3.333-.697.421.11.835.22 1.25.352.088.027.175.046.26.064.259.056.49.105.63.37.083.167-.131.263-.331.25-.35-.028-.54-.094-.856-.205a14.521 14.521 0 0 0-.573-.19c-.435-.137-1.401-.31-1.843-.296-1.588-.166-.739 1.802-.194 2.417.15.168.382.36.642.576.97.806 2.338 1.944 1.402 3.387-.47.716-2.6-.328-3.79-.911-.348-.171-.616-.303-.738-.339l-.107-.031c-.817-.244-2.018-.602-2.461-.245-.552.435.704 1.478 1.077 1.692.224.13.433.28.644.432.081.059.163.118.246.176l.309.212c.276.19.552.378.823.575 1.519.973 2.181 2.43 2.174 2.934-.006.505-.093.611-.438 1.033l-.059.072c-.296.36-.58.387-.959.36-.712-.05-.987-.172-1.288-.306-.122-.054-.248-.11-.41-.164-.394-.13-.772-.298-1.148-.465l-.136-.06c-.107-.046-.207-.107-.307-.168-.126-.076-.252-.152-.39-.198-1.926-.78-2.478-.525-2.74-.159l.014.026c.004.008.007.011.007.015-.18.712 1.65 2.01 2.595 2.638.131.086.259.18.385.272l.14.101.246.179c.13.094.257.188.388.277.127.083.257.162.386.241.288.175.575.35.822.574l.092.081c.495.437 1.878 1.655 1.813 3.51-.19 3.34-1.867 4.117-2.774 4.538l-.012.005c-.214.218-.368.372-.368.372.704.594 1.367 1.664 1.229 2.956-.076.739-1.215 1.843-1.215 1.843.003.043.109.21.221.389.105.165.215.34.255.433.077.169.13.346.185.521.018.062.037.123.057.183l.01.037c.05.189.173.656.231 1.351.07.767-.393 1.526-.483 1.637a8.977 8.977 0 0 0-.069.087c-.247.318-.824 1.058-1.546 1.494l-.018.01c-.93.548-1.674.986-3.923 1.192-5.586.512-13.488-2.805-15.903-3.818-.384-.161-.63-.264-.704-.284a.449.449 0 0 0-.214 0c-.145.045-.29.093-.433.141-.205.068-.41.136-.616.197-.125.042-2.175.656-2.485.663-.113.003-.848.161-1.816.37-1.592.343-3.81.821-4.914.963l-.257.034c-1.521.206-6.364.86-8.875-.324a4.278 4.278 0 0 0-.097-.044c-.501-.226-1.934-.87-1.87-2.808 0-.463.152-.884.366-1.298.138-.262-.035-.587-.283-.697a40.558 40.558 0 0 0-.14-.305 13.851 13.851 0 0 1-.288-.655c-.228-.546-.394-1.119-.2-1.699.158-.449.372-.89.62-1.298.194-.325.456-.608.712-.877.248-.262.241-.552-.062-.76l-.297-.295c-.927-.435-2.487-1.268-2.671-4.49-.065-1.854 1.317-3.072 1.812-3.508l.093-.082c.24-.213.522-.386.801-.558.138-.084.275-.168.407-.257.13-.089.259-.183.388-.277l.247-.179.138-.1c.127-.093.255-.187.386-.273.946-.628 2.775-1.926 2.595-2.637 0-.003.003-.008.007-.014a.124.124 0 0 0 .014-.028c-.262-.366-.814-.621-2.74.16-.133.045-.258.12-.383.195a2.643 2.643 0 0 1-.314.17l-.088.04c-.393.173-.791.35-1.196.485-.162.054-.288.11-.41.164-.301.134-.576.256-1.288.305-.38.028-.663 0-.96-.359l-.058-.072c-.345-.421-.432-.528-.438-1.032-.007-.505.655-1.961 2.174-2.935.271-.196.547-.385.823-.575l.309-.212c.083-.058.164-.117.246-.176.21-.151.42-.302.644-.432.373-.207 1.63-1.25 1.084-1.692-.443-.357-1.645.002-2.46.245l-.108.032c-.122.037-.386.166-.73.335-1.19.583-3.332 1.633-3.798.914-.94-1.441.424-2.574 1.396-3.382.262-.217.495-.411.647-.581.546-.608 1.395-2.582-.193-2.417-.442-.014-1.408.166-1.843.297-.214.068-.381.127-.522.176-.346.12-.54.188-.907.218-.207.014-.414-.083-.331-.249.138-.26.362-.31.615-.364.089-.02.182-.04.275-.07.27-.087.544-.16.817-.234.144-.04.289-.078.433-.119 2.65-.732 3.168.131 3.334.697.522 1.85-.836 2.926-1.921 3.785-.65.514-1.2.95-1.192 1.429.007.2.048.345.255.331.462-.035.815-.145 1.318-.359.026-.01.074-.035.143-.07.596-.297 2.727-1.362 4.793-1.263 1.753.09.724 2.735-.166 3.425-.663.51-1.288 1.069-1.914 1.629l-.233.208c-.4.359-.766.76-1.132 1.16-.096.11-.172.262-.214.407-.048.166.028.29.228.277.47.081 1.882-.56 2.58-.879.186-.084.32-.145.374-.164l.308-.108c.53-.188 1.061-.376 1.611-.486.58-.11 1.056.159 1.491.587.449.442.614 1.119.545 1.657-.152 1.243-.994 1.996-1.946 2.735-.305.236-.636.434-.969.632-.27.162-.541.324-.798.507-.497.359-.98.753-1.429 1.174-.407.386-.828.8-1.111 1.277-.76 1.029-.407 2.244-.256 2.638l.184.467c.004-.365.099-.71.286-1.075.393-.766 1.014-1.277 1.677-1.74.932-.532 2.23-.628 2.292-.628.01-.094.018-.188.026-.282.018-.212.036-.424.084-.63.062-.283.152-.559.283-.814.145-.284.31-.56.532-.78a5.14 5.14 0 0 1 .959-.767c.994-.539 1.995-.767 3.748-.877 0-.039.001-.071.003-.1.002-.067.004-.12-.01-.197-.297-1.72 1.028-2.624 1.498-2.866.145-.076.559-.317.559-.317-.255-.477-.359-1.133-.393-1.644-.214-3.252 2.72-4.074 2.72-4.074.04-.296.275-1.657 1.435-2.492-.89-.67-1.14-1.968-.829-2.79.139-.366.428-.628.746-.863l.123-.091c.081-.062.162-.123.25-.178.052-.035.11-.059.186-.09.045-.02.097-.04.159-.07-.002-.012-.02-.043-.049-.088-.146-.238-.55-.898-.255-1.796.31-.615.828-1.14 1.429-1.47.575-.433 1.505-.461 2.075-.479.114-.003.213-.006.292-.012.912-.062 1.712.304 2.485.711.418.213.824.447 1.23.68.224.129.449.258.675.383.207.118.421.214.635.311.055.028.145.02.2-.007.154-.068.305-.138.455-.208.202-.094.403-.188.608-.275.075-.031.172-.066.278-.104.244-.088.53-.19.675-.297 0 0-.007-.248-.035-.407-.11-.65-.566-1.512-1.38-1.885 0 0-.428 1.043-1.056 1.415-.373.235-1.332.304-1.822-.082-.283-.249-.421-.539-.477-.919-.096-.711.263-1.098.829-1.408.593-.325 1.187-.311 1.787-.083-.023-.14-.048-.282-.074-.424-.059-.33-.12-.668-.153-1.006-.049-.483.096-1.767.8-2.561.442-.484.842-.808 1.45-.85.158-.007.331.11.47.332.116.183-.018.25-.136.308a.477.477 0 0 0-.106.065c-1.374.8-1.547 1.747-1.616 2.513-.034.407-.034.829.007 1.243.028.304.131.56.442.787.414.304.745.76 1.028 1.202.318.497.601 1.035.615 1.567 1.587.249 2.112.766 2.43 1.284l.011.02c.297.493.497.825.354 1.52-.04.18-.112.352-.194.548-.044.106-.09.22-.137.343l.117.143c.117.142.256.31.373.492l.025.04c.139.217.288.451.334.692.11.635.145 1.277-.097 1.899-.047.13-.082.266-.12.416-.021.088-.045.181-.073.281l.03.026a.818.818 0 0 0 .143.106c1.096.608 1.416 1.37 1.603 1.816.03.07.055.133.08.186.298.905.16 1.567-.282 2.272a.381.381 0 0 0-.02.048c.087.063.176.124.264.185.202.139.402.276.584.43.214.186.435.393.587.635.134.207.214.451.292.69l.032.097c.145.43.071.848-.006 1.282l-.021.12c-.125.663-.642 1.926-.953 2.32.17.016.537.017.9.018.398 0 .792.002.915.023.134.023.269.044.404.064.226.034.452.068.673.116l.193.042c.344.073.69.147 1.015.275 2.042.706 2.032 2.772 2.03 3.162v.028c.004.11-.016.222-.037.347a4.7 4.7 0 0 0-.033.206c.14.01.278.018.414.026.322.018.636.036.946.084.304.053.604.137.904.22.129.036.258.072.387.105l.296.076c.296.075.592.15.877.248 1.82.92 2.341 1.721 2.567 2.068.03.047.055.085.077.114ZM29.93 7.188c.02.255.228.359.414.386.663.104 1.084-.103 1.27-.897a1.494 1.494 0 0 0-1.256-.104c-.248.083-.449.373-.428.615Zm15.296 23.891s1.111-2.382-2.457-3.308c0 0-1.726-.393-3.286-.296 0 0-1.891 2.32-5.791 1.077l-5.612 1.015s3.645 2.037 5.142 2.582c0 0 7.027-1.14 12.004-1.07Zm-3.21 2.085s1.919-.145 2.968-1.484c0 0-4.818-.125-10.057.973 0 0 2.872 1.057 7.09.511Zm-2.768-7.347s1.96-2.258.283-3.604c-.338-.27-.794-.352-.794-.352s-1.504 2.776-4.155 2.63c0 0-1.87-.227-4.604-1.622l-3.74 1.326s10.919 5.178 13.01 1.622Zm-1.58-4.26s-2.202-.18-5.212.573c0 0 3.134 1.492 4.563.27 0 0 .462-.367.649-.843Zm.793-.677s1.063-.87-.069-2.872c0 0-.51-.684-1.187-.794 0 0-.904 2.492-2.774 2.658-1.457.125-3.08-.592-4.126-1.054-.232-.103-.436-.193-.603-.258l-2.512 1.16 4.328 1.816s3.817-1.056 6.943-.656Zm-5.79-3.355c1.642-.56 3.658-.408 3.658-.408-1.567 1.996-3.659.407-3.659.407Zm4.127-1.015s.718-.753.524-2.19c0 0-.006-.704-.71-.98 0 0-.663 2.34-2.913 2.541 0 0-1.353.407-3.734-1.409 0 0-1.905 1.25-2.34 1.354l3.72 1.298s3.313-.801 5.453-.614Zm-5.322-2.956c2.278-1.05 4.452-.4 4.452-.4-2.45 2.202-4.452.4-4.452.4Zm2.23-3.7s-.249 1.497-1.43.627l1.43-.628Zm.67-.201s-.235 1.353-1.326 1.96c0 0-.856.657-2.333-.29l-1.67.885 1.767 1.022s2.712-1.278 5.411-.567c0 0 1.097-1.526-.228-2.527 0 0-.42-.532-1.622-.483Zm-4.121 1.229c-3.48-3.059-5.805-1.63-5.805-1.63-2.153.978-1.002 2.177-.898 2.285l.007.008c2.533-1.064 4.618.283 4.618.283l2.078-.946Zm-3.528 1.498c-1.021.663-2.277-.2-2.277-.2a2.377 2.377 0 0 1 2.277.2Zm-3.34 0s-1.657.332-1.402 1.927c.063.386.325 1.167.89 1.298 0 0 .705-.739 3.625-.138 0 0 1.774-.435 2.892-1.312l-2.085-1.333s-1.304 1.036-3.92-.442Zm5.55 5.738c-4.625-2.285-5.785-1.733-5.785-1.733-1.17.143-1.71 1.743-1.774 1.935a.255.255 0 0 1-.007.02c1.781-.222 4.984 1.014 4.984 1.014l2.581-1.236Zm-4.625 1.975c-2.582.974-2.858-.69-2.858-.69 1.353-.29 2.858.69 2.858.69Zm-3.32-.677c-1.153.07-1.705 1.098-1.705 1.098-1.07 2.604.014 3.398.014 3.398 3.444-1.195 6.198 0 6.198 0 .449-.332 3.555-1.568 3.555-1.568l-4.066-1.754c-.683.45-2.243.463-2.243.463-1.622-.187-1.753-1.637-1.753-1.637Zm2.477 5.345c-2.374 1.16-3.761-.249-3.761-.249 2.747-.483 3.762.249 3.762.249Zm-1.718 1.036c-1.45.186-2.789-1.036-2.789-1.036-2.208.518-1.84 2.548-1.804 2.752l.003.017c4.093-.484 10.098 1.657 10.098 1.657l5.598-1.001s-2.112-.49-4.404-1.367c-.987-.373-3.9-1.63-3.9-1.63-.966.435-2.802.608-2.802.608Zm2.195 3.825c-4.7.85-6.544-1.264-6.544-1.264 4.238.063 6.544 1.264 6.544 1.264Zm-7.337-1.215s-2.32-.352-3.817.76c-1.353 1.007-1.167 2.375-1.167 2.375s7.137-1.057 15.44 1.664l3.831-.484s-2.098-1.698-5.5-2.665c0 0-3.473.566-5.826.083 0 0-2.264-.642-2.961-1.733Zm.241 6.035s5.881-.463 6.447-.794c0 0-2.554-1.154-6.447-1.423 0 0-3.9-.048-5.08.2 0 0 .47 1.886 5.08 2.017Zm-8.987-.525c-1.152 1.402-.248 2.375-.248 2.375l1.45 1.133c2.657-1.181 5.252-.877 5.252-.877 5.874.241 8.338 1.05 8.338 1.05 1.802-.463 7.724-1.354 7.724-1.354-2.754-1.291-5.508-2.065-5.508-2.065-1.25.297-7.676.718-7.676.718-4.976.297-6.025-2.402-6.025-2.402-2.603.117-3.307 1.422-3.307 1.422Zm6.378 4.923s2.878-.117 5.329-.677c0 0-1.76-1.035-5.357-1.187 0 0-3.002-.187-4.5.877 0 0 .615.649 4.528.987Zm-5.032-.815s-1.332.774-1.815 2.576c0 0-.124 1.277.863 2.472 0 0 2.871-2.576 6.992-2.327 0 0 4.976.076 9.85 2.216l5.549-1.194s-4.687-1.913-10.008-3.3c0 0-3.921.931-6.475.78 0 0-3.175-.007-4.956-1.223Zm6.281 6.788c3.279-.173 7.351-1.554 7.351-1.554-4.051-1.408-7.123-1.774-7.13-1.774-5.453-.394-7.054 2.016-7.054 2.016 1.947 1.616 6.833 1.312 6.833 1.312Zm-6.163 2.541s3.037 1.685 12.237-.262l6.903-1.616-4.708-1.83s-5.107 1.312-7.675 1.671c0 0-5.501.394-7.8-1.671 0 0-1.45 2.216 1.043 3.708Zm36.064 1.05s4.521.027 5.736-2.093c0 0 .56-1.836-.656-3.46 0 0-3.071 7.044-18.712-.724l-5.639 1.132s13.577 5.552 19.271 5.145Zm-3.071-7.458s-5.39.117-7.455.753c0 0 4.97 2.237 8.373 2.237 0 0 4.597.159 6.536-1.402 0 0-2.167-1.34-7.454-1.588Zm7.862 1.291s1.518-1.118 1.256-2.506c0 0-.18-.856-1.001-1.775 0 0-3.603 1.65-8.372 1.733 0 0-5.198-.165-10.823-3.03 0 0-4.811.552-7.572 1.249 0 0 6.419 1.616 10.346 3.314 0 0 6.489-.925 8.78-.725 0 0 5.301.311 7.386 1.74Zm-.408-4.674s-4.707-2.507-15.51-1.105c0 0 4.232 2.113 8.705 2.465 0 0 4.39-.014 6.805-1.36Zm-17.07-1.72s12.819-1.312 17.491 1.471c0 0 1.277-.98 1.905-1.823 0 0 .45-2.161-4.21-3.563l-2.167-.317s-1.76 2.934-6.827 3.21c0 0-4.652-.096-7.413-1.767l-3.03.607 4.252 2.182Z" fill="#898A8D"/></svg>