<svg fill="none" xmlns="http://www.w3.org/2000/svg" viewBox="0 0 92 77">
  <path fill-rule="evenodd" clip-rule="evenodd" d="M5.93 51.209a19.016 19.016 0 0 1 13.447-5.57h30.426A19.016 19.016 0 0 1 68.82 64.655v7.607a3.803 3.803 0 0 1-7.607 0v-7.607a11.41 11.41 0 0 0-11.41-11.41H19.377a11.41 11.41 0 0 0-11.41 11.41v7.607a3.803 3.803 0 0 1-7.606 0v-7.607c0-5.043 2.004-9.88 5.57-13.446ZM34.59 7.606c-6.301 0-11.41 5.109-11.41 11.41 0 6.302 5.109 11.41 11.41 11.41 6.302 0 11.41-5.108 11.41-11.41 0-6.301-5.108-11.41-11.41-11.41Zm-19.016 11.41C15.574 8.514 24.088 0 34.59 0c10.503 0 19.016 8.514 19.016 19.016 0 10.503-8.513 19.016-19.016 19.016-10.502 0-19.016-8.513-19.016-19.016ZM72.743 48.987a3.803 3.803 0 0 1 4.634-2.732 19.016 19.016 0 0 1 14.262 18.398v7.61a3.803 3.803 0 1 1-7.607 0v-7.604a11.413 11.413 0 0 0-8.557-11.04 3.803 3.803 0 0 1-2.731-4.632ZM57.529 3.355A3.803 3.803 0 0 1 62.156.614a19.016 19.016 0 0 1 0 36.844 3.803 3.803 0 1 1-1.886-7.369 11.41 11.41 0 0 0 0-22.106 3.803 3.803 0 0 1-2.741-4.628Z" fill="#000"/>
</svg>