<svg fill="none" xmlns="http://www.w3.org/2000/svg" viewBox="0 0 64 70">
  <path fill-rule="evenodd" clip-rule="evenodd" d="M51 6.565a6.333 6.333 0 1 0 0 12.667 6.333 6.333 0 0 0 0-12.667ZM38.333 12.9C38.333 5.903 44.004.232 51 .232c6.996 0 12.667 5.671 12.667 12.667 0 6.995-5.671 12.666-12.667 12.666-6.996 0-12.667-5.67-12.667-12.666ZM13 28.732A6.333 6.333 0 1 0 13 41.4a6.333 6.333 0 0 0 0-12.667ZM.333 35.066C.333 28.07 6.004 22.399 13 22.399c6.996 0 12.667 5.671 12.667 12.667 0 6.995-5.671 12.666-12.667 12.666-6.996 0-12.667-5.67-12.667-12.666ZM51 50.899a6.333 6.333 0 1 0 0 12.667 6.333 6.333 0 0 0 0-12.667Zm-12.667 6.333c0-6.995 5.671-12.667 12.667-12.667 6.996 0 12.667 5.672 12.667 12.667C63.667 64.228 57.996 69.9 51 69.9c-6.996 0-12.667-5.671-12.667-12.667Z" fill="#000"/>
  <path fill-rule="evenodd" clip-rule="evenodd" d="M18.466 38.252a3.167 3.167 0 0 1 4.33-1.141l21.628 12.603a3.167 3.167 0 1 1-3.188 5.472L19.607 42.583a3.167 3.167 0 0 1-1.141-4.33ZM45.533 16.084a3.167 3.167 0 0 1-1.139 4.331L22.798 33.02a3.167 3.167 0 1 1-3.192-5.47l21.596-12.604a3.167 3.167 0 0 1 4.331 1.14Z" fill="#000"/>
</svg>