<svg width="132" height="37" viewBox="0 0 645 149" fill="none" xmlns="http://www.w3.org/2000/svg"><g clip-path="url(#a)"><path d="M144.233 2.083a14.539 14.539 0 0 0-9.025.04 14.568 14.568 0 0 0-7.27 5.359l-50.75 71.024 11.232 15.72a14.66 14.66 0 0 1 1.234 16.96L125.22 61.41v71.414a14.6 14.6 0 0 0 4.265 10.315 14.546 14.546 0 0 0 10.296 4.273c3.862 0 7.565-1.537 10.296-4.273a14.6 14.6 0 0 0 4.265-10.315V15.974c0-3.09-.979-6.099-2.796-8.595a14.557 14.557 0 0 0-7.313-5.296Z" fill="#00B6AB"/><path d="M14.6 147.412a14.546 14.546 0 0 1-10.297-4.273A14.602 14.602 0 0 1 .04 132.824V88.942c0-3.87 1.534-7.58 4.264-10.316A14.546 14.546 0 0 1 14.6 74.353c3.862 0 7.566 1.537 10.296 4.273a14.603 14.603 0 0 1 4.265 10.316v43.882a14.609 14.609 0 0 1-4.266 10.314 14.548 14.548 0 0 1-10.295 4.274Z" fill="#00C49A"/><path opacity=".4" d="M14.6 103.564c8.062 0 14.598-6.548 14.598-14.627 0-8.078-6.536-14.627-14.599-14.627S0 80.859 0 88.937c0 8.079 6.536 14.627 14.6 14.627ZM139.781 147.412a14.552 14.552 0 0 0 10.295-4.274 14.61 14.61 0 0 0 4.266-10.315v-1.01a14.636 14.636 0 0 0-4.597-9.693 14.58 14.58 0 0 0-9.964-3.938 14.58 14.58 0 0 0-9.963 3.938 14.636 14.636 0 0 0-4.597 9.693v1.01c0 3.87 1.534 7.58 4.264 10.316a14.548 14.548 0 0 0 10.296 4.273ZM139.781 30.602a14.59 14.59 0 0 0 9.96-3.94 14.645 14.645 0 0 0 4.601-9.687V15.97a14.617 14.617 0 0 0-2.791-8.607 14.563 14.563 0 0 0-7.321-5.301 14.532 14.532 0 0 0-9.032.043 14.563 14.563 0 0 0-7.269 5.373l-.624.876a14.646 14.646 0 0 0-.257 14.784 14.612 14.612 0 0 0 5.362 5.462 14.58 14.58 0 0 0 7.381 1.998l-.01.005Z" fill="#fff"/><path d="M88.42 94.22 77.189 78.5 26.437 7.483a14.573 14.573 0 0 0-9.478-6.04A14.533 14.533 0 0 0 6.012 3.958a14.578 14.578 0 0 0-5.904 9.574 14.616 14.616 0 0 0 2.654 10.935l61.95 86.714a14.618 14.618 0 0 0 4.073 4.356 14.575 14.575 0 0 0 16.88-.067 14.645 14.645 0 0 0 2.742-21.25h.014Z" fill="#00C49A"/><path opacity=".4" d="M77.187 118.191c8.063 0 14.6-6.548 14.6-14.627 0-8.078-6.537-14.627-14.6-14.627-8.062 0-14.599 6.549-14.599 14.627 0 8.079 6.537 14.627 14.6 14.627Z" fill="#fff"/><path d="M250.211 148.904a14.328 14.328 0 0 0 3.318 0h-1.656c-.553 0-1.11.009-1.662 0Z" fill="#FF7BAC"/><path d="M253.083.053a16.73 16.73 0 0 0-1.21-.053 14.587 14.587 0 0 0-10.324 4.284 14.645 14.645 0 0 0 0 20.686 14.587 14.587 0 0 0 10.324 4.284c.288 0 .576-.01.864-.029a45.134 45.134 0 0 1 31.686 13.624 45.31 45.31 0 0 1 12.864 32.053 45.308 45.308 0 0 1-13.453 31.809 45.133 45.133 0 0 1-31.933 13.035 14.59 14.59 0 0 1 10.006 4.011 14.643 14.643 0 0 1 4.532 9.796 14.654 14.654 0 0 1-3.41 10.243 14.595 14.595 0 0 1-9.495 5.108 74.147 74.147 0 0 0 51.485-22.352 74.43 74.43 0 0 0 21.155-52.069c0-40.643-32.68-73.776-73.091-74.43Z" fill="#00A7BD"/><path d="M251.872 119.746h-.024a45.18 45.18 0 0 1-25.107-7.68 45.305 45.305 0 0 1-16.625-20.355 45.413 45.413 0 0 1-2.546-26.177 45.359 45.359 0 0 1 12.39-23.187 14.602 14.602 0 0 0 4.071-10.314 14.601 14.601 0 0 0-4.344-10.201 14.544 14.544 0 0 0-20.477.046 74.687 74.687 0 0 0-21.611 52.605c0 40.489 32.43 73.531 72.635 74.421.552.061 1.107.093 1.662.096 3.872 0 7.585-1.541 10.323-4.284a14.641 14.641 0 0 0 4.276-10.343c0-3.88-1.538-7.6-4.276-10.343a14.585 14.585 0 0 0-10.323-4.284h-.024Z" fill="#00B6AB"/><path opacity=".4" d="M251.872 149c8.063 0 14.599-6.549 14.599-14.627 0-8.079-6.536-14.627-14.599-14.627s-14.599 6.548-14.599 14.627c0 8.078 6.536 14.627 14.599 14.627ZM251.872 29.254c8.063 0 14.599-6.548 14.599-14.627C266.471 6.55 259.935 0 251.872 0s-14.599 6.549-14.599 14.627c0 8.079 6.536 14.627 14.599 14.627Z" fill="#fff"/><path d="M457.609 19.78C444.162 7.751 425.88 1.386 404.783 1.386h-43.629a14.547 14.547 0 0 0-10.296 4.273 14.602 14.602 0 0 0-4.265 10.315c0 3.87 1.534 7.58 4.265 10.316a14.547 14.547 0 0 0 10.296 4.273h43.629c13.85 0 25.414 3.796 33.453 10.985 8.447 7.554 12.736 18.635 12.736 32.935s-4.298 25.294-12.765 32.82c-8.048 7.15-19.603 10.932-33.424 10.932h-29.068v13.039a14.64 14.64 0 0 1-4.201 11.852 14.589 14.589 0 0 1-10.322 4.286h43.591c21.053 0 39.288-6.322 52.749-18.284 14.757-13.116 22.571-32.011 22.571-54.645s-7.823-41.562-22.494-54.703Z" fill="#0099CE"/><path d="M375.672 131.274V59.856c0-3.87-1.534-7.58-4.265-10.316a14.547 14.547 0 0 0-10.296-4.273 14.547 14.547 0 0 0-10.296 4.273 14.602 14.602 0 0 0-4.265 10.316v72.929a14.648 14.648 0 0 0 4.271 10.333 14.583 14.583 0 0 0 10.309 4.289 14.588 14.588 0 0 0 10.322-4.285 14.648 14.648 0 0 0 4.277-10.342 14.285 14.285 0 0 0-.057-1.506Z" fill="#00A7BD"/><path opacity=".4" d="M361.116 30.563c8.041 0 14.56-6.531 14.56-14.589 0-8.057-6.519-14.588-14.56-14.588-8.042 0-14.561 6.531-14.561 14.588 0 8.058 6.519 14.59 14.561 14.59ZM361.149 147.407c8.063 0 14.599-6.548 14.599-14.627 0-8.078-6.536-14.627-14.599-14.627s-14.599 6.549-14.599 14.627c0 8.079 6.536 14.627 14.599 14.627Z" fill="#fff"/><path opacity=".4" d="M361.599 147.254c8.063 0 14.599-6.548 14.599-14.627 0-8.078-6.536-14.627-14.599-14.627S347 124.549 347 132.627c0 8.079 6.536 14.627 14.599 14.627Z" fill="#fff"/><path d="M571.904.053a16.73 16.73 0 0 0-1.21-.053 14.585 14.585 0 0 0-10.323 4.284 14.64 14.64 0 0 0-4.276 10.343c0 3.88 1.538 7.6 4.276 10.343a14.585 14.585 0 0 0 10.323 4.284c.293 0 .576 0 .864-.029a45.134 45.134 0 0 1 31.689 13.624 45.307 45.307 0 0 1 12.864 32.056 45.306 45.306 0 0 1-13.457 31.81 45.133 45.133 0 0 1-31.936 13.031 14.587 14.587 0 0 1 10.005 4.011 14.645 14.645 0 0 1 1.122 20.039 14.592 14.592 0 0 1-9.494 5.108 74.148 74.148 0 0 0 51.487-22.35 74.431 74.431 0 0 0 21.157-52.07C645 33.84 612.32.706 571.904.052Z" fill="#008AE0"/><path d="M570.699 119.746a45.18 45.18 0 0 1-25.124-7.662 45.308 45.308 0 0 1-16.643-20.353 45.413 45.413 0 0 1-2.557-26.186 45.36 45.36 0 0 1 12.393-23.198 14.6 14.6 0 0 0 4.07-10.314 14.601 14.601 0 0 0-4.344-10.201 14.546 14.546 0 0 0-10.248-4.193 14.548 14.548 0 0 0-10.229 4.24 74.686 74.686 0 0 0-21.61 52.604c0 40.489 32.43 73.531 72.635 74.421.552.061 1.106.093 1.661.096 3.872 0 7.586-1.541 10.324-4.284a14.646 14.646 0 0 0 0-20.686 14.587 14.587 0 0 0-10.324-4.284h-.004Z" fill="#0099CE"/><path opacity=".4" d="M570.698 149c8.063 0 14.599-6.549 14.599-14.627 0-8.079-6.536-14.627-14.599-14.627s-14.599 6.548-14.599 14.627c0 8.078 6.536 14.627 14.599 14.627ZM570.698 29.254c8.063 0 14.599-6.548 14.599-14.627C585.297 6.55 578.761 0 570.698 0s-14.599 6.549-14.599 14.627c0 8.079 6.536 14.627 14.599 14.627Z" fill="#fff"/></g><defs><clipPath id="a"><path fill="#fff" d="M0 0h645v149H0z"/></clipPath></defs></svg>